<svg width="125" height="24" viewBox="0 0 125 24" fill="none" xmlns="http://www.w3.org/2000/svg">
<path d="M24.7446 5.70847H27.5263V7.5114H27.5778C27.9899 6.73872 28.5651 6.18925 29.3035 5.86301C30.0418 5.5196 30.8402 5.34789 31.6988 5.34789C32.7462 5.34789 33.6562 5.53677 34.4289 5.91452C35.2188 6.27511 35.8713 6.78164 36.3864 7.43413C36.9015 8.06945 37.2878 8.81638 37.5454 9.67491C37.803 10.5335 37.9318 11.4521 37.9318 12.4308C37.9318 13.3237 37.8116 14.1908 37.5712 15.0322C37.3479 15.8735 36.9959 16.6205 36.5152 17.273C36.0516 17.9083 35.4592 18.4234 34.738 18.8183C34.0168 19.1961 33.1669 19.385 32.1881 19.385C31.7589 19.385 31.3296 19.342 30.9003 19.2562C30.4711 19.1875 30.059 19.0673 29.664 18.8956C29.2691 18.7239 28.8999 18.5093 28.5565 18.2517C28.2303 17.977 27.9556 17.6593 27.7323 17.2987H27.6808V23.9438H24.7446V5.70847ZM34.9956 12.3793C34.9956 11.7783 34.9183 11.1945 34.7638 10.6279C34.6092 10.0613 34.3774 9.5633 34.0683 9.13404C33.7593 8.6876 33.3729 8.3356 32.9093 8.07804C32.4457 7.8033 31.9134 7.66594 31.3124 7.66594C30.0761 7.66594 29.1403 8.09521 28.505 8.95374C27.8869 9.81228 27.5778 10.9541 27.5778 12.3793C27.5778 13.049 27.6551 13.6757 27.8096 14.2595C27.9813 14.8261 28.2303 15.3155 28.5565 15.7276C28.8828 16.1397 29.2691 16.4659 29.7156 16.7063C30.1792 16.9467 30.7115 17.0669 31.3124 17.0669C31.9821 17.0669 32.5487 16.9296 33.0123 16.6548C33.4759 16.3801 33.8537 16.0281 34.1456 15.5988C34.4547 15.1524 34.6693 14.6544 34.7895 14.105C34.9269 13.5383 34.9956 12.9631 34.9956 12.3793Z" fill="black"/>
<path d="M40.4128 5.70847H43.1687V8.28408H43.2202C43.3061 7.9235 43.4692 7.5715 43.7096 7.22808C43.9671 6.88467 44.2676 6.5756 44.611 6.30086C44.9716 6.00896 45.3665 5.77716 45.7958 5.60545C46.2251 5.43374 46.6629 5.34789 47.1094 5.34789C47.4528 5.34789 47.6846 5.35647 47.8048 5.37364C47.9422 5.39082 48.0795 5.40799 48.2169 5.42516V8.25833C48.0108 8.22399 47.7962 8.19823 47.573 8.18106C47.3669 8.14672 47.1609 8.12955 46.9548 8.12955C46.4569 8.12955 45.9847 8.23257 45.5382 8.43862C45.109 8.6275 44.7312 8.9194 44.405 9.31433C44.0787 9.69209 43.8212 10.1643 43.6323 10.7309C43.4434 11.2975 43.349 11.95 43.349 12.6884V19.0244H40.4128V5.70847Z" fill="black"/>
<path d="M55.1191 19.385C54.0545 19.385 53.1016 19.2133 52.2602 18.8698C51.436 18.5093 50.732 18.0199 50.1482 17.4017C49.5816 16.7836 49.1437 16.0453 48.8346 15.1867C48.5427 14.3282 48.3968 13.3838 48.3968 12.3535C48.3968 11.3405 48.5427 10.4047 48.8346 9.54613C49.1437 8.6876 49.5816 7.94925 50.1482 7.33111C50.732 6.71296 51.436 6.23218 52.2602 5.88877C53.1016 5.52818 54.0545 5.34789 55.1191 5.34789C56.1837 5.34789 57.1281 5.52818 57.9523 5.88877C58.7937 6.23218 59.4977 6.71296 60.0643 7.33111C60.6481 7.94925 61.0859 8.6876 61.3778 9.54613C61.6869 10.4047 61.8415 11.3405 61.8415 12.3535C61.8415 13.3838 61.6869 14.3282 61.3778 15.1867C61.0859 16.0453 60.6481 16.7836 60.0643 17.4017C59.4977 18.0199 58.7937 18.5093 57.9523 18.8698C57.1281 19.2133 56.1837 19.385 55.1191 19.385ZM55.1191 17.0669C55.7716 17.0669 56.3382 16.9296 56.819 16.6548C57.2998 16.3801 57.6947 16.0195 58.0038 15.5731C58.3129 15.1266 58.5361 14.6287 58.6735 14.0792C58.828 13.5126 58.9053 12.9374 58.9053 12.3535C58.9053 11.7869 58.828 11.2203 58.6735 10.6536C58.5361 10.087 58.3129 9.58906 58.0038 9.15979C57.6947 8.71335 57.2998 8.35277 56.819 8.07804C56.3382 7.8033 55.7716 7.66594 55.1191 7.66594C54.4666 7.66594 53.9 7.8033 53.4192 8.07804C52.9384 8.35277 52.5435 8.71335 52.2344 9.15979C51.9254 9.58906 51.6936 10.087 51.539 10.6536C51.4017 11.2203 51.333 11.7869 51.333 12.3535C51.333 12.9374 51.4017 13.5126 51.539 14.0792C51.6936 14.6287 51.9254 15.1266 52.2344 15.5731C52.5435 16.0195 52.9384 16.3801 53.4192 16.6548C53.9 16.9296 54.4666 17.0669 55.1191 17.0669Z" fill="black"/>
<path d="M73.6577 9.90672H75.2803C75.0914 8.37852 74.499 7.23667 73.5031 6.48116C72.5244 5.72564 71.3224 5.34789 69.8973 5.34789C68.8842 5.34789 67.9827 5.53677 67.1929 5.91452C66.4202 6.29228 65.7677 6.79882 65.2354 7.43413C64.7031 8.06945 64.2996 8.81638 64.0249 9.67491C63.7502 10.5163 63.6128 11.4177 63.6128 12.3793C63.6128 13.3409 63.7502 14.2509 64.0249 15.1095C64.2996 15.9508 64.7031 16.6892 65.2354 17.3245C65.7677 17.9598 66.4202 18.4663 67.1929 18.8441C67.9827 19.2047 68.8842 19.385 69.8973 19.385C71.4083 19.385 72.6446 18.9385 73.6062 18.0456C74.5677 17.1356 75.1601 15.8735 75.3833 14.2595H73.7607C73.7092 14.809 73.5718 15.3155 73.3486 15.7791C73.1254 16.2427 72.8421 16.6462 72.4986 16.9896C72.1552 17.3159 71.7603 17.5735 71.3139 17.7623C70.8674 17.9512 70.3952 18.0456 69.8973 18.0456C69.1246 18.0456 68.4464 17.8825 67.8625 17.5563C67.2787 17.23 66.7894 16.8008 66.3945 16.2685C66.0167 15.7362 65.7248 15.1352 65.5187 14.4655C65.3299 13.7787 65.2354 13.0833 65.2354 12.3793C65.2354 11.6753 65.3299 10.9885 65.5187 10.3188C65.7248 9.63199 66.0167 9.02243 66.3945 8.49013C66.7894 7.95784 67.2787 7.52857 67.8625 7.20233C68.4464 6.87608 69.1246 6.71296 69.8973 6.71296C70.979 6.71296 71.8204 6.99628 72.4214 7.56291C73.0224 8.12955 73.4345 8.91082 73.6577 9.90672Z" fill="black"/>
<path d="M77.6126 0.634521V19.0244H79.2353V11.2718C79.2524 10.6193 79.3555 10.0183 79.5443 9.46887C79.7504 8.90223 80.0251 8.42145 80.3685 8.02652C80.7291 7.61443 81.1584 7.29677 81.6563 7.07355C82.1715 6.83316 82.7553 6.71296 83.4078 6.71296C84.0602 6.71296 84.6011 6.81599 85.0304 7.02204C85.4768 7.22808 85.8288 7.5114 86.0864 7.87199C86.344 8.23257 86.5243 8.66184 86.6273 9.15979C86.7303 9.64057 86.7818 10.1643 86.7818 10.7309V19.0244H88.4044V10.4734C88.4044 9.6835 88.3272 8.97091 88.1726 8.3356C88.0181 7.70028 87.752 7.16799 87.3742 6.73872C86.9964 6.29228 86.4899 5.94886 85.8546 5.70847C85.2364 5.46808 84.4638 5.34789 83.5365 5.34789C82.5922 5.34789 81.725 5.59686 80.9352 6.09482C80.1453 6.5756 79.5959 7.2195 79.2868 8.02652H79.2353V0.634521H77.6126Z" fill="black"/>
<path d="M91.3177 9.80369H92.9403C92.9747 8.72194 93.3181 7.94067 93.9706 7.45989C94.6231 6.96194 95.4644 6.71296 96.4947 6.71296C96.9755 6.71296 97.4219 6.75589 97.834 6.84174C98.2633 6.91043 98.6324 7.04779 98.9415 7.25384C99.2677 7.45989 99.5167 7.74321 99.6884 8.10379C99.8773 8.44721 99.9717 8.89365 99.9717 9.44311C99.9717 9.80369 99.9202 10.0956 99.8172 10.3188C99.7314 10.542 99.6026 10.7223 99.4309 10.8597C99.2592 10.9799 99.0445 11.0657 98.787 11.1173C98.5294 11.1688 98.2289 11.2117 97.8855 11.246C97.0098 11.3491 96.1427 11.4607 95.2841 11.5809C94.4428 11.6839 93.6787 11.8728 92.9918 12.1475C92.3222 12.4222 91.7813 12.8257 91.3692 13.358C90.9571 13.8732 90.7511 14.5943 90.7511 15.5215C90.7511 16.1912 90.8627 16.775 91.0859 17.273C91.3263 17.7537 91.6439 18.1573 92.0389 18.4835C92.451 18.7926 92.9232 19.0158 93.4555 19.1532C94.0049 19.3077 94.5887 19.385 95.2069 19.385C95.8594 19.385 96.4174 19.3249 96.881 19.2047C97.3618 19.0845 97.7825 18.9128 98.1431 18.6896C98.5208 18.4663 98.8557 18.1916 99.1476 17.8654C99.4566 17.5219 99.7571 17.1356 100.049 16.7063H100.101C100.101 17.0497 100.118 17.3674 100.152 17.6593C100.204 17.934 100.298 18.1744 100.435 18.3805C100.573 18.5865 100.762 18.7496 101.002 18.8698C101.26 18.9729 101.594 19.0244 102.006 19.0244C102.23 19.0244 102.41 19.0158 102.547 18.9986C102.702 18.9815 102.874 18.9557 103.062 18.9214V17.5563C102.908 17.625 102.736 17.6593 102.547 17.6593C101.912 17.6593 101.594 17.3331 101.594 16.6806V9.6234C101.594 8.73052 101.448 8.00935 101.157 7.45989C100.865 6.89325 100.487 6.4554 100.023 6.14633C99.5596 5.83726 99.0359 5.63121 98.4521 5.52818C97.8683 5.40799 97.2845 5.34789 96.7007 5.34789C95.928 5.34789 95.224 5.43374 94.5887 5.60545C93.9534 5.77716 93.3954 6.0433 92.9146 6.40389C92.451 6.76447 92.0818 7.22808 91.8071 7.79472C91.5323 8.36135 91.3692 9.03101 91.3177 9.80369ZM99.9717 11.7612V13.8732C99.9717 14.5256 99.843 15.1095 99.5854 15.6246C99.345 16.1397 99.0102 16.5775 98.5809 16.9381C98.1688 17.2987 97.6795 17.5735 97.1128 17.7623C96.5462 17.9512 95.9538 18.0456 95.3357 18.0456C94.9579 18.0456 94.5887 17.9855 94.2281 17.8654C93.8676 17.7452 93.5499 17.5735 93.2752 17.3502C93.0004 17.1098 92.7772 16.8351 92.6055 16.526C92.451 16.1998 92.3737 15.8306 92.3737 15.4185C92.3737 14.766 92.5626 14.2681 92.9403 13.9247C93.3353 13.5641 93.8332 13.2894 94.4342 13.1005C95.0352 12.9116 95.6962 12.7742 96.4174 12.6884C97.1557 12.5854 97.8683 12.4737 98.5552 12.3535C98.7784 12.3192 99.0359 12.2591 99.3279 12.1733C99.6198 12.0874 99.8172 11.95 99.9202 11.7612H99.9717Z" fill="black"/>
<path d="M104.802 5.73423V19.0244H106.425V11.2718C106.442 10.6193 106.545 10.0183 106.734 9.46887C106.94 8.90223 107.215 8.42145 107.558 8.02652C107.919 7.61443 108.348 7.29677 108.846 7.07355C109.361 6.83316 109.945 6.71296 110.598 6.71296C111.25 6.71296 111.791 6.81599 112.22 7.02204C112.667 7.22808 113.019 7.5114 113.276 7.87199C113.534 8.23257 113.714 8.66184 113.817 9.15979C113.92 9.64057 113.972 10.1643 113.972 10.7309V19.0244H115.594V10.4734C115.594 9.6835 115.517 8.97091 115.362 8.3356C115.208 7.70028 114.942 7.16799 114.564 6.73872C114.186 6.29228 113.68 5.94886 113.044 5.70847C112.426 5.46808 111.654 5.34789 110.726 5.34789C109.782 5.34789 108.915 5.59686 108.125 6.09482C107.335 6.5756 106.786 7.2195 106.477 8.02652H106.425V5.73423H104.802Z" fill="black"/>
<path d="M121.238 5.73423V1.74203H119.615V5.73423H117.297V7.0993H119.615V16.1912C119.598 17.3245 119.804 18.1057 120.233 18.535C120.662 18.9471 121.418 19.1532 122.5 19.1532C122.74 19.1532 122.98 19.1446 123.221 19.1274C123.461 19.1102 123.702 19.1016 123.942 19.1016V17.7366C123.478 17.7881 123.015 17.8138 122.551 17.8138C121.967 17.7795 121.598 17.6164 121.444 17.3245C121.306 17.0154 121.238 16.5947 121.238 16.0624V7.0993H123.942V5.73423H121.238Z" fill="black"/>
<path d="M17.561 0.585366C17.561 0.262077 17.8231 0 18.1464 0H19.9025C20.2258 0 20.4879 0.262077 20.4879 0.585366V2.34146C20.4879 2.66475 20.2258 2.92683 19.9025 2.92683H18.1464C17.8231 2.92683 17.561 2.66475 17.561 2.34146V0.585366Z" fill="#D24747"/>
<path d="M17.561 5.85368C17.561 5.53039 17.8231 5.26831 18.1464 5.26831H19.9025C20.2258 5.26831 20.4879 5.53039 20.4879 5.85368V7.60977C20.4879 7.93306 20.2258 8.19514 19.9025 8.19514H18.1464C17.8231 8.19514 17.561 7.93306 17.561 7.60977V5.85368Z" fill="#D2A447"/>
<path d="M11.7073 5.85368C11.7073 5.53039 11.9694 5.26831 12.2926 5.26831H14.0487C14.372 5.26831 14.6341 5.53039 14.6341 5.85368V7.60977C14.6341 7.93306 14.372 8.19514 14.0487 8.19514H12.2926C11.9694 8.19514 11.7073 7.93306 11.7073 7.60977V5.85368Z" fill="#D24747"/>
<path d="M17.561 11.122C17.561 10.7987 17.8231 10.5366 18.1464 10.5366H19.9025C20.2258 10.5366 20.4879 10.7987 20.4879 11.122V12.8781C20.4879 13.2014 20.2258 13.4635 19.9025 13.4635H18.1464C17.8231 13.4635 17.561 13.2014 17.561 12.8781V11.122Z" fill="#2B7E7E"/>
<rect x="11.7073" y="10.5366" width="2.92683" height="2.92683" rx="1.46341" fill="#D2A447"/>
<path d="M0 11.122C0 10.7987 0.262077 10.5366 0.585366 10.5366H2.34146C2.66475 10.5366 2.92683 10.7987 2.92683 11.122V12.8781C2.92683 13.2014 2.66475 13.4635 2.34146 13.4635H0.585366C0.262077 13.4635 0 13.2014 0 12.8781V11.122Z" fill="#D24747"/>
<path d="M17.561 16.3903C17.561 16.067 17.8231 15.8049 18.1464 15.8049H19.9025C20.2258 15.8049 20.4879 16.067 20.4879 16.3903V18.1464C20.4879 18.4697 20.2258 18.7318 19.9025 18.7318H18.1464C17.8231 18.7318 17.561 18.4697 17.561 18.1464V16.3903Z" fill="#2B7E7E"/>
<path d="M11.7073 16.3903C11.7073 16.067 11.9694 15.8049 12.2926 15.8049H14.0487C14.372 15.8049 14.6341 16.067 14.6341 16.3903V18.1464C14.6341 18.4697 14.372 18.7318 14.0487 18.7318H12.2926C11.9694 18.7318 11.7073 18.4697 11.7073 18.1464V16.3903Z" fill="#D2A447"/>
<path d="M5.85364 16.3903C5.85364 16.067 6.11572 15.8049 6.439 15.8049H8.1951C8.51839 15.8049 8.78047 16.067 8.78047 16.3903V18.1464C8.78047 18.4697 8.51839 18.7318 8.1951 18.7318H6.439C6.11572 18.7318 5.85364 18.4697 5.85364 18.1464V16.3903Z" fill="#D24747"/>
<path d="M0 16.3903C0 16.067 0.262077 15.8049 0.585366 15.8049H2.34146C2.66475 15.8049 2.92683 16.067 2.92683 16.3903V18.1464C2.92683 18.4697 2.66475 18.7318 2.34146 18.7318H0.585366C0.262077 18.7318 0 18.4697 0 18.1464V16.3903Z" fill="#D2A447"/>
<path d="M17.561 21.6585C17.561 21.3352 17.8231 21.0731 18.1464 21.0731H19.9025C20.2258 21.0731 20.4879 21.3352 20.4879 21.6585V23.4146C20.4879 23.7379 20.2258 24 19.9025 24H18.1464C17.8231 24 17.561 23.7379 17.561 23.4146V21.6585Z" fill="#2B7E7E"/>
<path d="M11.7073 21.6585C11.7073 21.3352 11.9694 21.0731 12.2926 21.0731H14.0487C14.372 21.0731 14.6341 21.3352 14.6341 21.6585V23.4146C14.6341 23.7379 14.372 24 14.0487 24H12.2926C11.9694 24 11.7073 23.7379 11.7073 23.4146V21.6585Z" fill="#2B7E7E"/>
<path d="M5.85364 21.6585C5.85364 21.3352 6.11572 21.0731 6.439 21.0731H8.1951C8.51839 21.0731 8.78047 21.3352 8.78047 21.6585V23.4146C8.78047 23.7379 8.51839 24 8.1951 24H6.439C6.11572 24 5.85364 23.7379 5.85364 23.4146V21.6585Z" fill="#2B7E7E"/>
<path d="M0 21.6585C0 21.3352 0.262077 21.0731 0.585366 21.0731H2.34146C2.66475 21.0731 2.92683 21.3352 2.92683 21.6585V23.4146C2.92683 23.7379 2.66475 24 2.34146 24H0.585366C0.262077 24 0 23.7379 0 23.4146V21.6585Z" fill="#2B7E7E"/>
</svg>
